<mxfile host="app.diagrams.net" modified="2023-11-03T12:12:39.264Z" agent="Mozilla/5.0 (Macintosh; Intel Mac OS X 10_15_7) AppleWebKit/605.1.15 (KHTML, like Gecko) Version/17.0 Safari/605.1.15" etag="XLXb_OcetAzqtK-gPR35" version="22.0.8" type="device">
  <diagram name="Сторінка-1" id="9OsBTPsCSJJKc-trF1OA">
    <mxGraphModel dx="776" dy="537" grid="1" gridSize="10" guides="1" tooltips="1" connect="1" arrows="1" fold="1" page="1" pageScale="1" pageWidth="827" pageHeight="1169" math="0" shadow="0">
      <root>
        <mxCell id="0" />
        <mxCell id="1" parent="0" />
        <mxCell id="IYvaXIhW1yzAsToqzrK2-3" value="" style="edgeStyle=orthogonalEdgeStyle;rounded=0;orthogonalLoop=1;jettySize=auto;html=1;" edge="1" parent="1" source="IYvaXIhW1yzAsToqzrK2-1" target="IYvaXIhW1yzAsToqzrK2-2">
          <mxGeometry relative="1" as="geometry" />
        </mxCell>
        <mxCell id="IYvaXIhW1yzAsToqzrK2-1" value="&lt;font style=&quot;font-size: 24px;&quot;&gt;start&lt;/font&gt;" style="strokeWidth=2;html=1;shape=mxgraph.flowchart.start_2;whiteSpace=wrap;" vertex="1" parent="1">
          <mxGeometry x="350" y="120" width="100" height="100" as="geometry" />
        </mxCell>
        <mxCell id="IYvaXIhW1yzAsToqzrK2-5" value="" style="edgeStyle=orthogonalEdgeStyle;rounded=0;orthogonalLoop=1;jettySize=auto;html=1;" edge="1" parent="1" source="IYvaXIhW1yzAsToqzrK2-2" target="IYvaXIhW1yzAsToqzrK2-4">
          <mxGeometry relative="1" as="geometry" />
        </mxCell>
        <mxCell id="IYvaXIhW1yzAsToqzrK2-2" value="Ввід числа факторіал&lt;br&gt;&amp;nbsp;якого ми шукаємо" style="shape=parallelogram;html=1;strokeWidth=2;perimeter=parallelogramPerimeter;whiteSpace=wrap;rounded=1;arcSize=12;size=0.23;" vertex="1" parent="1">
          <mxGeometry x="290" y="250" width="220" height="60" as="geometry" />
        </mxCell>
        <mxCell id="IYvaXIhW1yzAsToqzrK2-7" value="" style="edgeStyle=orthogonalEdgeStyle;rounded=0;orthogonalLoop=1;jettySize=auto;html=1;" edge="1" parent="1" source="IYvaXIhW1yzAsToqzrK2-4" target="IYvaXIhW1yzAsToqzrK2-6">
          <mxGeometry relative="1" as="geometry" />
        </mxCell>
        <mxCell id="IYvaXIhW1yzAsToqzrK2-9" value="1 &amp;lt; i &amp;lt; num + 1" style="edgeLabel;html=1;align=center;verticalAlign=middle;resizable=0;points=[];" vertex="1" connectable="0" parent="IYvaXIhW1yzAsToqzrK2-7">
          <mxGeometry x="-0.3" relative="1" as="geometry">
            <mxPoint x="5" y="-10" as="offset" />
          </mxGeometry>
        </mxCell>
        <mxCell id="IYvaXIhW1yzAsToqzrK2-12" value="" style="edgeStyle=orthogonalEdgeStyle;rounded=0;orthogonalLoop=1;jettySize=auto;html=1;" edge="1" parent="1" source="IYvaXIhW1yzAsToqzrK2-4" target="IYvaXIhW1yzAsToqzrK2-11">
          <mxGeometry relative="1" as="geometry" />
        </mxCell>
        <mxCell id="IYvaXIhW1yzAsToqzrK2-15" value="i &amp;gt; num + 1" style="edgeLabel;html=1;align=center;verticalAlign=middle;resizable=0;points=[];" vertex="1" connectable="0" parent="IYvaXIhW1yzAsToqzrK2-12">
          <mxGeometry x="-0.25" y="-1" relative="1" as="geometry">
            <mxPoint x="41" y="5" as="offset" />
          </mxGeometry>
        </mxCell>
        <mxCell id="IYvaXIhW1yzAsToqzrK2-4" value="for i = 1&lt;br&gt;I &amp;lt; num + 1" style="strokeWidth=2;html=1;shape=mxgraph.flowchart.decision;whiteSpace=wrap;" vertex="1" parent="1">
          <mxGeometry x="350" y="360" width="100" height="100" as="geometry" />
        </mxCell>
        <mxCell id="IYvaXIhW1yzAsToqzrK2-6" value="fac = fac * i" style="rounded=1;whiteSpace=wrap;html=1;absoluteArcSize=1;arcSize=14;strokeWidth=2;" vertex="1" parent="1">
          <mxGeometry x="550" y="360" width="100" height="100" as="geometry" />
        </mxCell>
        <mxCell id="IYvaXIhW1yzAsToqzrK2-8" value="" style="edgeStyle=segmentEdgeStyle;endArrow=classic;html=1;curved=0;rounded=0;endSize=8;startSize=8;exitX=0.5;exitY=0;exitDx=0;exitDy=0;" edge="1" parent="1" source="IYvaXIhW1yzAsToqzrK2-6">
          <mxGeometry width="50" height="50" relative="1" as="geometry">
            <mxPoint x="370" y="310" as="sourcePoint" />
            <mxPoint x="400" y="330" as="targetPoint" />
            <Array as="points">
              <mxPoint x="600" y="330" />
              <mxPoint x="420" y="330" />
            </Array>
          </mxGeometry>
        </mxCell>
        <mxCell id="IYvaXIhW1yzAsToqzrK2-10" value="i++" style="edgeLabel;html=1;align=center;verticalAlign=middle;resizable=0;points=[];rotation=0;" vertex="1" connectable="0" parent="IYvaXIhW1yzAsToqzrK2-8">
          <mxGeometry x="-0.1826" y="-2" relative="1" as="geometry">
            <mxPoint y="-8" as="offset" />
          </mxGeometry>
        </mxCell>
        <mxCell id="IYvaXIhW1yzAsToqzrK2-14" value="" style="edgeStyle=orthogonalEdgeStyle;rounded=0;orthogonalLoop=1;jettySize=auto;html=1;" edge="1" parent="1" source="IYvaXIhW1yzAsToqzrK2-11" target="IYvaXIhW1yzAsToqzrK2-13">
          <mxGeometry relative="1" as="geometry" />
        </mxCell>
        <mxCell id="IYvaXIhW1yzAsToqzrK2-11" value="вивід факторіалу" style="shape=parallelogram;html=1;strokeWidth=2;perimeter=parallelogramPerimeter;whiteSpace=wrap;rounded=1;arcSize=12;size=0.23;" vertex="1" parent="1">
          <mxGeometry x="350" y="500" width="100" height="60" as="geometry" />
        </mxCell>
        <mxCell id="IYvaXIhW1yzAsToqzrK2-13" value="&lt;font style=&quot;font-size: 24px;&quot;&gt;End&lt;/font&gt;" style="strokeWidth=2;html=1;shape=mxgraph.flowchart.start_1;whiteSpace=wrap;" vertex="1" parent="1">
          <mxGeometry x="350" y="600" width="100" height="60" as="geometry" />
        </mxCell>
      </root>
    </mxGraphModel>
  </diagram>
</mxfile>
